# xmcd
#
# Track frame offsets:
#	225
#	14738
#	31406
#	45101
#	55347
#	74939
#	89812
#	105743
#	118897
#	133027
#	150234
#	168443
#	184365
#
# Disc length: 2689 seconds
#
# Revision: 1
# Processed by: cddbd v1.5.1PL2 Copyright (c) Steve Scherf et al.
# Submitted via: audiograbber 1.83.01
#
DISCID=bd0a7e0d
DTITLE=Big Bad Bears - Blues For You
DYEAR=1900
DGENRE=Big Band
TTITLE0=Keep What I Got
TTITLE1=Gee Baby Ain't Good
TTITLE2=In The Evening
TTITLE3=My Mother's Eyes
TTITLE4=Stormy Monday
TTITLE5=You Rascal You
TTITLE6=Since I Fell For You
TTITLE7=That Will Never Do
TTITLE8=C.c. Rider
TTITLE9=Caledonia
TTITLE10=Tomorrow Night
TTITLE11=For You My Love
TTITLE12=Woke Up This Morning
EXTD=
EXTT0=
EXTT1=
EXTT2=
EXTT3=
EXTT4=
EXTT5=
EXTT6=
EXTT7=
EXTT8=
EXTT9=
EXTT10=
EXTT11=
EXTT12=
PLAYORDER=
